<?xml version="1.0" ?>
<!-- Uploaded to: SVG Repo, www.svgrepo.com, Generator: SVG Repo Mixer Tools -->
<svg width="800px" height="800px" viewBox="0 0 512 512" version="1.1" xml:space="preserve" xmlns="http://www.w3.org/2000/svg" xmlns:xlink="http://www.w3.org/1999/xlink">
<style type="text/css">
	.st0{display:none;}
	.st1{display:inline;}
	.st2{fill:none;stroke:#B3B3B3;stroke-miterlimit:10;}
	.st3{fill:none;stroke:#ED1C24;stroke-miterlimit:10;}
	.st4{fill:#F9C04A;}
	.st5{fill:#FFFFFF;stroke:#000000;stroke-width:10;stroke-linecap:round;stroke-linejoin:round;stroke-miterlimit:10;}
	.st6{fill:#DEF6FC;}
	.st7{fill:#FFDA9F;}
	.st8{fill:#FFFFFF;}
	.st9{fill:#FF5751;}
	.st10{fill:#FF908A;}
	.st11{fill:#133260;}
	.st12{fill:#7782BB;}
	.st13{fill:#96A5D6;}
	.st14{fill:#FF5741;}
	.st15{fill:#43527A;}
	.st16{fill:#5E7296;}
	.st17{fill:none;stroke:#133260;stroke-width:9;stroke-linecap:round;stroke-linejoin:round;stroke-miterlimit:10;}
	.st18{fill:#83D689;}
	.st19{fill:#B5F4B8;}
	.st20{fill:#9BC5FF;}
	.st21{fill:#B8D8FF;}
	.st22{fill:#F24133;}
	.st23{fill:#589FFF;}
	.st24{fill:#7180BC;}
	.st25{fill:#93A3D8;}
	.st26{fill:#FF8103;}
	.st27{fill:#FF9D4D;}
	.st28{fill:#BC8D66;}
	.st29{fill:#CEA282;}
	.st30{fill:#FFDDA1;}
	.st31{fill:#FFF1DC;}
	.st32{fill:#7F6674;}
	.st33{fill:#937A89;}
	.st34{fill:#04398E;}
	.st35{fill:#A6D1FF;}
	.st36{fill:#EAA62D;}
	.st37{fill:#C5DFFF;}
	.st38{fill:#D6A47F;}
	.st39{fill:#99A4D6;}
</style>
<g class="st0" id="Layer_31">
<g class="st1">
<g>
<g>
<ellipse class="st2" cx="256" cy="256" rx="248.1" ry="248.3"/>
<path class="st2" d="M398.8,504.5H113.2c-18.8,0-34.1-15.3-34.1-34.1V41.6c0-18.8,15.3-34.1,34.1-34.1h285.5      c18.8,0,34.1,15.3,34.1,34.1v428.9C432.9,489.3,417.6,504.5,398.8,504.5z"/>
<path class="st2" d="M7.9,399.8V112.2c0-16.4,13.3-29.8,29.8-29.8h436.7c16.4,0,29.8,13.3,29.8,29.8v287.6      c0,16.4-13.3,29.8-29.8,29.8H37.6C21.2,429.6,7.9,416.2,7.9,399.8z"/>
<path class="st2" d="M440.4,469.9H71.6c-16.4,0-29.8-13.3-29.8-29.8V71.9c0-16.4,13.3-29.8,29.8-29.8h368.8      c16.4,0,29.8,13.3,29.8,29.8v368.2C470.2,456.5,456.8,469.9,440.4,469.9z"/>
</g>
<rect class="st3" height="497" transform="matrix(-1.836970e-16 1 -1 -1.836970e-16 512 5.684342e-14)" width="497" x="7.5" y="7.5"/>
</g>
</g>
</g>
<g id="Layer_32">
<g>
<g>
<g>
<path class="st24" d="M406.4,507.4l-301-0.6c-21,0-37.5-17.9-36-38.8l23-320.7c1.4-19,17.2-33.6,36.2-33.6l256.2,0.5      c19,0,34.8,14.8,36,33.7l21.8,320.7C444,489.7,427.4,507.5,406.4,507.4z"/>
</g>
<path class="st13" d="M130.7,506.9c-21,0-37.5-17.9-36-38.8l23-320.7c1.3-18.3,16.1-32.7,34.3-33.6l-23.5,0     c-19,0-34.8,14.6-36.2,33.6l-23,320.7c-1.5,20.9,15.1,38.7,36,38.8l301,0.6c0.6,0,1.2,0,1.8,0L130.7,506.9z"/>
<path class="st4" d="M105.4,506.9l301,0.6c21,0,37.6-17.7,36.2-38.6l-1.9-28.6H71.4l-2,27.9C67.9,489,84.5,506.9,105.4,506.9z"/>
<g>
<path class="st7" d="M130.7,506.9c-21,0-37.5-17.9-36-38.8l2-27.9H71.4l-2,27.9c-1.5,20.9,15.1,38.7,36,38.8H130.7z"/>
</g>
<circle class="st15" cx="163.5" cy="168.3" r="11.5"/>
<circle class="st15" cx="348.5" cy="168.3" r="11.5"/>
</g>
<path class="st11" d="M447.1,468.5l-1.9-28.5c0-0.1,0-0.1,0-0.2l-19.8-292.1c-1.4-21.3-19.3-37.9-40.6-38l-31.7-0.1V97.1    C353.1,43.6,309.5,0,256,0c-53.5,0-97.1,43.6-97.1,97.1v12.3l-30.3-0.1h-0.1c-21.3,0-39.1,16.6-40.6,37.8l-21,292.7c0,0,0,0,0,0    l-2,27.9c-0.8,11.2,3.1,22.4,10.8,30.7c7.7,8.2,18.5,13,29.8,13l301,0.6h0.1c11.2,0,22.1-4.7,29.7-12.9    C443.9,490.9,447.9,479.7,447.1,468.5z M168,97.1c0-48.5,39.5-88,88-88s88,39.5,88,88v12.6l-176-0.3V97.1z M348.5,161.3    c3.8,0,7,3.1,7,7s-3.1,7-7,7c-3.8,0-7-3.1-7-7S344.7,161.3,348.5,161.3z M163.5,161.3c3.8,0,7,3.1,7,7s-3.1,7-7,7    c-3.8,0-7-3.1-7-7S159.6,161.3,163.5,161.3z M97,147.8c1.2-16.5,15-29.4,31.6-29.4h0.1l30.3,0.1v34.4c-6.6,2-11.5,8.1-11.5,15.4    c0,8.9,7.2,16.1,16.1,16.1s16.1-7.2,16.1-16.1c0-7.3-4.9-13.4-11.5-15.4v-34.4l176,0.3v34.1c-6.6,2-11.5,8.1-11.5,15.4    c0,8.9,7.2,16.1,16.1,16.1c8.9,0,16.1-7.2,16.1-16.1c0-7.3-4.9-13.4-11.5-15.4v-34.1l31.7,0.1c16.5,0,30.4,13,31.5,29.5    l19.5,287.3H76.3L97,147.8z M429.6,492.9c-6,6.5-14.2,10-23.1,10h-0.1l-301-0.6c-8.9,0-17.1-3.6-23.1-10.1c-6-6.5-9-15-8.4-23.8    l1.7-23.7h360.7l1.7,24.3C438.7,478,435.6,486.4,429.6,492.9z"/>
</g>
</g>
</svg>