<?xml version="1.0" encoding="iso-8859-1"?>
<!-- Uploaded to: SVG Repo, www.svgrepo.com, Generator: SVG Repo Mixer Tools -->
<svg version="1.1" id="Layer_1" xmlns="http://www.w3.org/2000/svg" xmlns:xlink="http://www.w3.org/1999/xlink" 
	 viewBox="0 0 512 512" xml:space="preserve">
<polygon style="fill:#464655;" points="283.778,35.776 271.554,25.948 282.623,12.19 294.847,22.017 "/>
<path style="fill:#5B5D6E;" d="M267.424,28.855l-5.002-4.021c-2.419-1.944-2.803-5.481-0.858-7.898l9.512-11.83
	c1.944-2.418,5.48-2.802,7.897-0.858l5.002,4.021c2.418,1.944,2.803,5.481,0.858,7.898l-9.512,11.83
	C273.377,30.415,269.842,30.799,267.424,28.855z"/>
<path style="fill:#464655;" d="M379.586,80.745c0,0-52.966,8.828-44.138,35.31c6.493,19.479,22.537,29.406,30.57,33.294
	c2.731,1.322,5.963,0.793,8.109-1.353l5.459-5.459C361.931,116.055,379.586,80.745,379.586,80.745z"/>
<rect x="211.862" y="370.759" style="fill:#5B5D6E;" width="70.621" height="52.966"/>
<g>
	<path style="fill:#707487;" d="M308.966,441.379H185.379v-17.655c0-4.875,3.953-8.828,8.828-8.828h105.931
		c4.875,0,8.828,3.953,8.828,8.828V441.379z"/>
	<path style="fill:#707487;" d="M414.897,512c4.875,0,8.828-3.953,8.828-8.828v-8.828c0-34.127-79.044-61.793-176.552-61.793
		S70.621,460.217,70.621,494.345v8.828c0,4.875,3.953,8.828,8.828,8.828H414.897z"/>
</g>
<path style="fill:#D7DEED;" d="M87.839,467.862h318.666c-28.356-20.857-88.943-35.31-159.332-35.31S116.196,447.005,87.839,467.862z
	"/>
<g>
	<path style="fill:#5B5D6E;" d="M401.089,512c-12.454-15.966-32.989-26.483-56.377-26.483S300.788,496.034,288.334,512H401.089z"/>
	<path style="fill:#5B5D6E;" d="M206.009,512c-12.454-15.966-32.989-26.483-56.377-26.483S105.708,496.034,93.255,512H206.009z"/>
</g>
<path id="SVGCleanerId_0" style="fill:#707487;" d="M395.87,9.304C385.199,3.207,373.123,0,360.834,0h-20.5
	c-26.758,0-51.161,15.142-63.223,39.026c-52.536,104.032-63.392,236.081-65.007,284.001c-0.269,7.986-4.179,15.375-10.571,20.17
	l-21.45,16.086c-2.223,1.667-3.531,4.284-3.531,7.062v4.414c0,4.875,3.953,8.828,8.828,8.828h123.586
	c4.875,0,8.828-3.953,8.828-8.828v-4.414c0-2.778-1.309-5.395-3.531-7.062l-20.983-15.737c-6.783-5.087-10.848-13.131-10.602-21.607
	c2.678-92.474,32.491-151.926,54.769-189.638c11.244-19.036,27.908-34.51,48.328-42.986c48.862-20.281,55.606-54.005,55.606-54.005
	L395.87,9.304z"/>
<g>
	<path id="SVGCleanerId_0_1_" style="fill:#707487;" d="M395.87,9.304C385.199,3.207,373.123,0,360.834,0h-20.5
		c-26.758,0-51.161,15.142-63.223,39.026c-52.536,104.032-63.392,236.081-65.007,284.001c-0.269,7.986-4.179,15.375-10.571,20.17
		l-21.45,16.086c-2.223,1.667-3.531,4.284-3.531,7.062v4.414c0,4.875,3.953,8.828,8.828,8.828h123.586
		c4.875,0,8.828-3.953,8.828-8.828v-4.414c0-2.778-1.309-5.395-3.531-7.062l-20.983-15.737
		c-6.783-5.087-10.848-13.131-10.602-21.607c2.678-92.474,32.491-151.926,54.769-189.638c11.244-19.036,27.908-34.51,48.328-42.986
		c48.862-20.281,55.606-54.005,55.606-54.005L395.87,9.304z"/>
</g>
<path style="fill:#5B5D6E;" d="M247.751,335.448h38.526c-2.358-4.078-3.74-8.687-3.599-13.51
	c2.684-92.674,32.62-152.183,54.913-189.881c11.203-18.946,27.854-34.304,48.183-42.742c48.862-20.281,55.606-54.005,55.606-54.005
	h-74.627c-9.257,0-18.172,3.601-24.791,10.072c-82.884,81.034-99.958,240.158-103.012,280.562
	C238.56,331.079,242.601,335.448,247.751,335.448z"/>
<g>
	<path style="fill:#C7CFE2;" d="M238.878,326.621c9.432,0,17.176-7.381,17.632-16.802c1.361-28.094,6.356-86.428,24.689-136.185
		c4.22-11.454-4.382-23.564-16.589-23.564h-27.807c-18.521,72.82-23.633,141.277-24.701,172.959
		c-0.041,1.215-0.177,2.413-0.382,3.593L238.878,326.621L238.878,326.621z"/>
	<path style="fill:#C7CFE2;" d="M277.11,39.026c-9.43,18.673-17.51,38.249-24.441,58.078h14.681c3.836,0,7.299-2.315,8.885-5.809
		c21.382-47.104,40.851-64.627,51.432-71.072c4.394-2.676,5.887-8.275,3.473-12.817l-3.276-6.295
		C306.172,5.006,287.266,18.916,277.11,39.026z"/>
</g>
</svg>