<?xml version="1.0" encoding="UTF-8"?>
<svg version="1.1" xmlns="http://www.w3.org/2000/svg" width="24" height="24">
<path d="M0 0 C0.99 0.66 1.98 1.32 3 2 C5.32108669 2.70812814 7.65377147 3.38024152 10 4 C10 5.65 10 7.3 10 9 C5.39740305 9.89197615 0.99851145 10.16418651 -3.6875 10.1875 C-4.99074219 10.20167969 -6.29398437 10.21585938 -7.63671875 10.23046875 C-11 10 -11 10 -14 8 C-14.1875 4.875 -14.1875 4.875 -14 2 C-9.05601526 0.0224061 -5.24801962 -0.34413243 0 0 Z " fill="#BAD7FD" transform="translate(14,7)"/>
<path d="M0 0 C6.40629424 -0.20852314 11.92972642 -0.1583195 18 2 C18 3.65 18 5.3 18 7 C16.02 7.33 14.04 7.66 12 8 C12 7.01 12 6.02 12 5 C11.34 5 10.68 5 10 5 C9.67 4.34 9.34 3.68 9 3 C6.87423218 2.53348793 6.87423218 2.53348793 4.4375 2.375 C3.61121094 2.30023438 2.78492188 2.22546875 1.93359375 2.1484375 C1.29550781 2.09945313 0.65742187 2.05046875 0 2 C0 1.34 0 0.68 0 0 Z " fill="#A0B8DA" transform="translate(6,9)"/>
<path d="M0 0 C2.31 0.66 4.62 1.32 7 2 C6.67 3.32 6.34 4.64 6 6 C3.83125748 5.49396008 2.00032373 5.00016187 0 4 C0 2.68 0 1.36 0 0 Z " fill="#969DB6" transform="translate(0,11)"/>
</svg>
