<?xml version="1.0" encoding="UTF-8"?>
<svg version="1.1" xmlns="http://www.w3.org/2000/svg" width="24" height="24">
<path d="M0 0 C0 1.65 0 3.3 0 5 C-4.60259695 5.89197615 -9.00148855 6.16418651 -13.6875 6.1875 C-14.99074219 6.20167969 -16.29398438 6.21585938 -17.63671875 6.23046875 C-21 6 -21 6 -24 4 C-24.1875 0.875 -24.1875 0.875 -24 -2 C-14.84942517 -5.66022993 -8.59897513 -3.94707055 0 0 Z M-21.98046875 0.48046875 C-22.31691406 0.98191406 -22.65335938 1.48335937 -23 2 C-20.37472811 2.05382106 -17.75055287 2.09358313 -15.125 2.125 C-14.00544922 2.15013672 -14.00544922 2.15013672 -12.86328125 2.17578125 C-10.90805539 2.1933959 -8.95257979 2.10320189 -7 2 C-6.34 1.34 -5.68 0.68 -5 0 C-7.43694274 -0.24878997 -9.87238389 -0.47463404 -12.3125 -0.6875 C-13.00279297 -0.76033203 -13.69308594 -0.83316406 -14.40429688 -0.90820312 C-18.46454904 -1.30122229 -18.46454904 -1.30122229 -21.98046875 0.48046875 Z " fill="#000000" transform="translate(24,11)"/>
</svg>
