<?xml version="1.0" encoding="UTF-8"?>
<svg version="1.1" xmlns="http://www.w3.org/2000/svg" width="24" height="24">
<path d="M0 0 C1.32 0.66 2.64 1.32 4 2 C3.42415568 4.38564077 2.77772405 6.66682784 2 9 C2.6590841 10.66967972 3.32650839 12.33607955 4 14 C4.125 16.8125 4.125 16.8125 4 19 C3.34 19 2.68 19 2 19 C1.67 20.65 1.34 22.3 1 24 C-2.31248187 24.02888146 -5.62493167 24.04675799 -8.9375 24.0625 C-9.88302734 24.07087891 -10.82855469 24.07925781 -11.80273438 24.08789062 C-13.15141602 24.09272461 -13.15141602 24.09272461 -14.52734375 24.09765625 C-15.77632446 24.10551147 -15.77632446 24.10551147 -17.05053711 24.11352539 C-19 24 -19 24 -20 23 C-20.48171388 18.28652119 -20.58476988 13.70574256 -20 9 C-17.3125 6.375 -17.3125 6.375 -14 5 C-13.113125 4.236875 -12.22625 3.47375 -11.3125 2.6875 C-10.1678125 1.8521875 -10.1678125 1.8521875 -9 1 C-8.01 1.33 -7.02 1.66 -6 2 C-6 2.66 -6 3.32 -6 4 C-5.01 4 -4.02 4 -3 4 C-1.29467677 2.05990478 -1.29467677 2.05990478 0 0 Z M-9 3 C-9.99 4.485 -9.99 4.485 -11 6 C-10.01 5.67 -9.02 5.34 -8 5 C-8.33 4.34 -8.66 3.68 -9 3 Z M-6 6 C-6.66 6.66 -7.32 7.32 -8 8 C-6.68 8 -5.36 8 -4 8 C-4 7.34 -4 6.68 -4 6 C-4.66 6 -5.32 6 -6 6 Z M-18 10 C-18 13.96 -18 17.92 -18 22 C-12.06 22 -6.12 22 0 22 C0.33 21.01 0.66 20.02 1 19 C-0.98 19 -2.96 19 -5 19 C-4.67 17.35 -4.34 15.7 -4 14 C-2.35 13.67 -0.7 13.34 1 13 C0.67 12.01 0.34 11.02 0 10 C-5.94 10 -11.88 10 -18 10 Z M0 15 C0.33 15.99 0.66 16.98 1 18 C1.33 17.01 1.66 16.02 2 15 C1.34 15 0.68 15 0 15 Z " fill="#000000" transform="translate(20,0)"/>
</svg>
