<?xml version="1.0" encoding="UTF-8"?>
<svg version="1.1" xmlns="http://www.w3.org/2000/svg" width="24" height="24">
<path d="M0 0 C1.32 0.66 2.64 1.32 4 2 C3.42415568 4.38564077 2.77772405 6.66682784 2 9 C2.6590841 10.66967972 3.32650839 12.33607955 4 14 C4.125 16.8125 4.125 16.8125 4 19 C3.34 19 2.68 19 2 19 C1.67 20.65 1.34 22.3 1 24 C-2.31248187 24.02888146 -5.62493167 24.04675799 -8.9375 24.0625 C-9.88302734 24.07087891 -10.82855469 24.07925781 -11.80273438 24.08789062 C-13.15141602 24.09272461 -13.15141602 24.09272461 -14.52734375 24.09765625 C-15.77632446 24.10551147 -15.77632446 24.10551147 -17.05053711 24.11352539 C-19 24 -19 24 -20 23 C-20.48171388 18.28652119 -20.58476988 13.70574256 -20 9 C-17.3125 6.375 -17.3125 6.375 -14 5 C-13.113125 4.236875 -12.22625 3.47375 -11.3125 2.6875 C-10.1678125 1.8521875 -10.1678125 1.8521875 -9 1 C-8.01 1.33 -7.02 1.66 -6 2 C-6 2.66 -6 3.32 -6 4 C-5.01 4 -4.02 4 -3 4 C-1.29467677 2.05990478 -1.29467677 2.05990478 0 0 Z " fill="#392A1F" transform="translate(20,0)"/>
<path d="M0 0 C4.95 0 9.9 0 15 0 C17 5 17 5 17 8 C16.01 8.495 16.01 8.495 15 9 C15 9.99 15 10.98 15 12 C7.76253626 12.61334438 7.76253626 12.61334438 4.125 9.6875 C0 4.47058824 0 4.47058824 0 0 Z " fill="#73553F" transform="translate(6,10)"/>
<path d="M0 0 C1.32 0.66 2.64 1.32 4 2 C3 6 3 6 2 10 C0.35 9.67 -1.3 9.34 -3 9 C-2.25 2.25 -2.25 2.25 0 0 Z " fill="#0F0B04" transform="translate(20,0)"/>
<path d="M0 0 C0.33 0.66 0.66 1.32 1 2 C1.66 2 2.32 2 3 2 C3 3.32 3 4.64 3 6 C0.03 6 -2.94 6 -6 6 C-6 3 -6 3 -4.6875 1.3125 C-3 0 -3 0 0 0 Z " fill="#2A7F37" transform="translate(13,3)"/>
<path d="M0 0 C2.375 -0.125 2.375 -0.125 5 0 C7 2 7 2 7 5 C4.69 5.33 2.38 5.66 0 6 C-1.125 2.25 -1.125 2.25 0 0 Z " fill="#48362B" transform="translate(16,13)"/>
<path d="M0 0 C0.99 0.33 1.98 0.66 3 1 C2.49396008 3.16874252 2.00016187 4.99967627 1 7 C0.34 7 -0.32 7 -1 7 C-1.04254356 5.00045254 -1.04080783 2.99958364 -1 1 C-0.67 0.67 -0.34 0.34 0 0 Z " fill="#715B22" transform="translate(20,0)"/>
</svg>
