<?xml version="1.0" encoding="iso-8859-1"?>
<!-- Uploaded to: SVG Repo, www.svgrepo.com, Generator: SVG Repo Mixer Tools -->
<svg version="1.1" id="Layer_1" xmlns="http://www.w3.org/2000/svg" xmlns:xlink="http://www.w3.org/1999/xlink" 
	 viewBox="0 0 512 512" xml:space="preserve">
<path style="fill:#FDD349;" d="M458.97,395.194c0-14.166-11.484-25.65-25.65-25.65h-71.082l119.448-119.447
	c10.017-10.017,10.017-26.258,0-36.274c-10.017-10.017-26.258-10.017-36.274,0l18.138-18.138c10.017-10.017,10.017-26.258,0-36.274
	c-10.017-10.017-26.258-10.017-36.274,0l-12.092,12.092c10.017-10.017,10.017-26.258,0-36.274
	c-10.017-10.017-26.258-10.017-36.274,0l-36.274,36.274c10.017-10.017,10.017-26.258,0-36.274
	c-10.017-10.017-26.258-10.017-36.274,0L82.668,358.92l36.274,36.274l36.274,36.274l72.548,72.548l83.173-83.173H433.32
	C447.486,420.844,458.97,409.36,458.97,395.194z"/>
<g>
	<path style="fill:#FCB82D;" d="M457.499,403.728c0.945-2.671,1.471-5.539,1.471-8.534c0-14.166-11.484-25.65-25.65-25.65h-71.082
		v17.1h71.082C444.482,386.644,453.974,393.776,457.499,403.728z"/>
	<path style="fill:#FCB82D;" d="M391,147.319c7.897-7.897,19.658-9.563,29.193-5.009c-1.223-2.561-2.889-4.961-5.009-7.081
		c-10.017-10.017-26.258-10.017-36.274,0l-83.802,83.801l12.092,12.092L391,147.319z"/>
	<path style="fill:#FCB82D;" d="M468.559,166.492c-1.223-2.561-2.889-4.961-5.009-7.081c-10.017-10.017-26.257-10.017-36.274,0
		l-95.893,95.893l12.092,12.092l95.893-95.893C447.263,163.605,459.024,161.939,468.559,166.492z"/>
	<path style="fill:#FCB82D;" d="M481.686,213.823c-10.017-10.017-26.258-10.017-36.274,0l-77.756,77.756l12.092,12.092
		l77.756-77.756c7.897-7.897,19.659-9.563,29.193-5.009C485.474,218.343,483.806,215.943,481.686,213.823z"/>
	<path style="fill:#FCB82D;" d="M347.644,142.31c-1.223-2.561-2.889-4.961-5.009-7.081c-10.017-10.017-26.257-10.017-36.274,0
		L82.668,358.92l12.092,12.092l223.692-223.692C326.348,139.423,338.11,137.756,347.644,142.31z"/>
</g>
<rect x="251.742" y="409.87" transform="matrix(-0.7071 -0.7071 0.7071 -0.7071 146.1891 965.7931)" style="fill:#38ABEC;" width="42.749" height="85.499"/>
<g>
	<path style="fill:#54747B;" d="M324.497,334.737l-72.548-72.548c-6.678-6.678-6.678-17.505,0-24.182l0,0
		c6.678-6.678,17.505-6.678,24.182,0l72.548,72.548c6.677,6.677,6.677,17.505,0,24.182l0,0
		C342.002,341.415,331.175,341.415,324.497,334.737z"/>
	<path style="fill:#54747B;" d="M276.131,383.103l-72.549-72.548c-6.678-6.677-6.678-17.505,0-24.182l0,0
		c6.678-6.677,17.505-6.677,24.182,0l72.548,72.548c6.678,6.678,6.678,17.505,0,24.182l0,0
		C293.636,389.781,282.809,389.781,276.131,383.103z"/>
</g>
<g>
	<path style="fill:#94C54B;" d="M340.204,177.977c-10.017-10.017-26.258-10.017-36.274,0l-50.262,50.262V59.315
		c0-14.166-11.484-25.65-25.65-25.65c-14.166,0-25.65,11.484-25.65,25.65v-25.65c0-14.166-11.484-25.65-25.65-25.65
		s-25.65,11.484-25.65,25.65v17.1c0-14.166-11.484-25.65-25.65-25.65s-25.65,11.484-25.65,25.65v51.3
		c0-14.166-11.484-25.65-25.65-25.65s-25.65,11.484-25.65,25.65v316.348h205.199V300.788l86.537-86.537
		C350.221,204.235,350.221,187.994,340.204,177.977z"/>
	<path style="fill:#94C54B;" d="M99.768,102.065c0-14.166-11.484-25.65-25.65-25.65s-25.65,11.484-25.65,25.65v316.348h205.199
		V300.788l86.537-86.537c10.017-10.017,10.017-26.258,0-36.274c-10.017-10.017-26.258-10.017-36.274,0l-50.262,50.262V59.315
		c0-14.166-11.484-25.65-25.65-25.65c-14.166,0-25.65,11.484-25.65,25.65v-25.65c0-14.166-11.484-25.65-25.65-25.65
		c-14.166,0-25.65,11.484-25.65,25.65v17.1"/>
</g>
<path style="fill:#75B22D;" d="M261.149,245.34l50.262-50.262c10.011-10.011,26.237-10.015,36.256-0.017
	c-0.254-6.208-2.722-12.343-7.462-17.083c-10.017-10.017-26.258-10.017-36.274,0l-42.781,42.781v24.581H261.149z"/>
<path style="fill:#94C54B;" d="M151.068,50.765c0-14.166-11.484-25.65-25.65-25.65s-25.65,11.484-25.65,25.65v367.648h51.3V50.765z"
	/>
<g>
	<path style="fill:#75B22D;" d="M116.868,50.765c0-11.167,7.139-20.663,17.1-24.185c-2.675-0.946-5.551-1.465-8.55-1.465
		c-14.166,0-25.65,11.484-25.65,25.65v94.049h17.1V50.765z"/>
	<path style="fill:#75B22D;" d="M168.168,33.665c0-11.167,7.139-20.663,17.1-24.185c-2.675-0.946-5.551-1.465-8.55-1.465
		c-14.166,0-25.65,11.484-25.65,25.65v111.149h17.1V33.665z"/>
	<path style="fill:#75B22D;" d="M82.668,77.88c-2.675-0.946-5.551-1.465-8.55-1.465c-14.166,0-25.65,11.484-25.65,25.65v290.698
		h17.1V102.065C65.568,90.898,72.707,81.402,82.668,77.88z"/>
	<path style="fill:#75B22D;" d="M219.468,59.315c0-11.167,7.139-20.663,17.1-24.185c-2.675-0.946-5.551-1.465-8.55-1.465
		c-14.166,0-25.65,11.484-25.65,25.65v85.5h17.1V59.315z"/>
</g>
<path style="fill:#38ABEC;" d="M262.217,392.763H57.019c-18.888,0-34.2-15.312-34.2-34.2v-17.1c0-18.888,15.312-34.2,34.2-34.2
	h205.199V392.763z"/>
<path style="fill:#3E92DD;" d="M65.568,375.664c-18.888,0-34.2-15.312-34.2-34.2v-17.1c0-2.094,0.199-4.14,0.559-6.13
	c-5.65,6.1-9.109,14.26-9.109,23.23v17.1c0,18.888,15.312,34.2,34.2,34.2h205.199v-17.1H65.568z"/>
<g>
	<circle style="fill:#54747B;" cx="210.918" cy="350.014" r="17.1"/>
	<circle style="fill:#54747B;" cx="142.518" cy="350.014" r="17.1"/>
	<circle style="fill:#54747B;" cx="74.118" cy="350.014" r="17.1"/>
	<path style="fill:#54747B;" d="M193.818,238.864h-85.5c-18.888,0-34.2-15.312-34.2-34.2l0,0c0-18.888,15.312-34.2,34.2-34.2h85.5
		c18.888,0,34.2,15.312,34.2,34.2l0,0C228.018,223.552,212.706,238.864,193.818,238.864z"/>
	<path style="fill:#54747B;" d="M228.018,307.264H74.118v-17.1c0-14.166,11.484-25.65,25.65-25.65h102.599
		c14.166,0,25.65,11.484,25.65,25.65V307.264z"/>
</g>
<path d="M487.354,208.154c-4.606-4.607-10.226-7.597-16.149-8.97c11.1-13.213,10.437-33.017-1.989-45.442
	c-10.541-10.543-26.396-12.618-39.028-6.225c-1.152-6.581-4.264-12.885-9.338-17.958c-13.126-13.126-34.485-13.126-47.609,0
	l-15.986,15.986c-1.421-6.004-4.48-11.514-8.953-15.986c-6.358-6.359-14.813-9.86-23.805-9.86s-17.446,3.501-23.804,9.86
	l-39.01,39.009v-49.761c0-4.427-3.589-8.016-8.016-8.016c-4.427,0-8.016,3.589-8.016,8.016v109.432
	c0,6.985,8.737,10.616,13.683,5.668l50.262-50.263c6.876-6.876,18.063-6.876,24.939,0c6.797,6.798,6.797,18.141,0,24.939
	l-86.537,86.537c-1.135,1.135-1.893,2.575-2.197,4.127h-9.769v-9.084c0-18.563-15.102-33.665-33.665-33.665H99.766
	c-18.563,0-33.665,15.102-33.665,33.665v9.084h-9.084c-23.277,0-42.215,18.938-42.215,42.215v17.1
	c0,17.4,10.584,32.372,25.65,38.825v21.025c0,4.427,3.589,8.016,8.016,8.016h91.782c0.363,1.259,81.849,83.256,81.849,83.256
	c3.085,3.087,8.251,3.087,11.335,0l12.469-12.469l6.424,6.424c3.085,3.087,8.251,3.087,11.335,0l60.457-60.458
	c3.13-3.13,3.13-8.206,0-11.335l-2.986-2.986h112.188c18.563,0,33.665-15.102,33.665-33.665c0-18.564-15.102-33.665-33.665-33.665
	h-51.73l69.49-69.49c3.13-3.13,3.13-8.206,0-11.335c-3.13-3.13-8.206-3.13-11.335,0l-83.173,83.173
	c-4.946,4.946-1.32,13.683,5.668,13.683h71.082c9.723,0,17.634,7.911,17.634,17.634c0,9.723-7.911,17.634-17.634,17.634H305.102
	l-11.211-11.211c-3.13-3.13-8.206-3.13-11.335,0l-60.457,60.457c-3.13,3.13-3.13,8.206,0,11.335l12.469,12.469l-6.801,6.802
	l-66.254-66.253h92.155c4.427,0,8.016-3.589,8.016-8.016v-17.634h0.534c4.427,0,8.016-3.589,8.016-8.016v-4.224l0.231,0.231
	c4.743,4.743,11.051,7.356,17.759,7.356c6.708,0,13.016-2.613,17.76-7.356c9.792-9.793,9.792-25.726,0-35.519
	c0,0-35.195-35.063-35.749-35.396v-10.592c0-3.167-1.84-5.896-4.507-7.198l6.383-6.383l46.721,46.721
	c9.682,9.682,25.837,9.682,35.52,0c9.792-9.793,9.792-25.726,0-35.519l-46.721-46.721l38.245-38.245
	c6.359-6.359,9.86-14.813,9.86-23.805c0-7.249-2.28-14.148-6.494-19.882l35.338-35.338c6.798-6.797,18.141-6.797,24.938,0
	c6.797,6.798,6.797,18.141,0,24.939l-84.64,84.64c-2.919,2.918-3.112,7.739-0.426,10.876c2.998,3.5,8.501,3.72,11.762,0.46
	l96.732-96.732c6.875-6.875,18.062-6.876,24.938,0c6.797,6.798,6.797,18.141,0,24.939l-96.732,96.731
	c-2.919,2.918-3.112,7.739-0.426,10.876c2.998,3.5,8.501,3.72,11.762,0.46l78.594-78.594c3.331-3.33,7.759-5.165,12.469-5.165
	s9.139,1.834,12.469,5.165c6.797,6.798,6.797,18.141,0,24.939l-17.404,17.403c-3.13,3.13-3.13,8.205,0,11.335
	c3.088,3.089,8.247,3.088,11.335,0l17.404-17.403C500.481,242.638,500.481,221.28,487.354,208.154z M288.223,418.621l18.893,18.893
	l-49.122,49.122l-18.893-18.893L288.223,418.621z M82.134,290.164c0-9.723,7.911-17.634,17.634-17.634h102.599
	c9.723,0,17.634,7.911,17.634,17.634v9.084H82.134C82.134,299.248,82.134,290.164,82.134,290.164z M30.834,358.564v-17.1
	c0-14.438,11.747-26.184,26.184-26.184h197.183v69.468H57.019C42.58,384.748,30.834,373.001,30.834,358.564z M245.652,410.398
	H56.484v-9.633c0.178,0.002,0.355,0.014,0.534,0.014h188.633V410.398z M294.646,364.587c3.542,3.542,3.542,9.306,0,12.847
	c-3.501,3.501-9.346,3.501-12.847,0l-11.567-11.566v-25.695L294.646,364.587z M343.012,316.221c3.542,3.542,3.542,9.306,0,12.847
	c-3.5,3.501-9.345,3.501-12.846,0l-46.721-46.721l12.847-12.847L343.012,316.221z M298.262,172.309l-36.579,36.579v-18.115
	c0.659-0.359,50.345-49.877,50.345-49.877c6.875-6.875,18.062-6.876,24.938,0c6.875,6.876,6.875,18.063,0,24.939
	c-0.022,0.022-0.041,0.047-0.062,0.068C324.335,159.743,308.698,161.872,298.262,172.309z"/>
<path d="M48.469,290.698c4.427,0,8.016-3.589,8.016-8.016V102.065c0-9.723,7.911-17.634,17.634-17.634s17.634,7.911,17.634,17.634
	v42.75c0,4.427,3.589,8.016,8.016,8.016s8.016-3.589,8.016-8.016V50.765c0-9.723,7.911-17.634,17.634-17.634
	s17.634,7.911,17.634,17.634v94.049c0,4.427,3.589,8.016,8.016,8.016s8.016-3.589,8.016-8.016V33.665
	c0-9.723,7.911-17.634,17.634-17.634s17.634,7.911,17.634,17.634v111.149c0,4.427,3.589,8.016,8.016,8.016
	c4.427,0,8.016-3.589,8.016-8.016v-85.5c0-9.723,7.911-17.634,17.634-17.634c9.723,0,17.634,7.911,17.634,17.634v26.719
	c0,4.427,3.589,8.016,8.016,8.016s8.016-3.589,8.016-8.016V59.315c0-18.563-15.102-33.665-33.665-33.665
	c-6.515,0-12.603,1.86-17.761,5.077C208.762,13.535,194.29,0,176.718,0c-14.909,0-27.586,9.743-31.999,23.196
	c-5.469-3.84-12.126-6.096-19.3-6.096c-18.563,0-33.665,15.102-33.665,33.665v22.632C86.621,70.229,80.579,68.4,74.118,68.4
	c-18.563,0-33.665,15.102-33.665,33.665v180.618C40.453,287.11,44.042,290.698,48.469,290.698z"/>
<path d="M210.918,375.129c13.849,0,25.115-11.267,25.115-25.116c0-13.849-11.267-25.115-25.115-25.115
	c-13.849,0-25.115,11.267-25.115,25.115C185.802,363.862,197.069,375.129,210.918,375.129z M210.918,340.929
	c5.009,0,9.084,4.075,9.084,9.084s-4.075,9.084-9.084,9.084s-9.084-4.075-9.084-9.084S205.908,340.929,210.918,340.929z"/>
<path d="M142.518,375.129c13.849,0,25.115-11.267,25.115-25.116c0-13.849-11.267-25.115-25.115-25.115
	c-13.849,0-25.115,11.267-25.115,25.115C117.403,363.862,128.669,375.129,142.518,375.129z M142.518,340.929
	c5.009,0,9.084,4.075,9.084,9.084s-4.075,9.084-9.084,9.084s-9.084-4.075-9.084-9.084S137.509,340.929,142.518,340.929z"/>
<path d="M99.234,350.014c0-13.849-11.267-25.115-25.115-25.115s-25.115,11.267-25.115,25.115c0,13.849,11.267,25.116,25.115,25.116
	S99.234,363.862,99.234,350.014z M65.034,350.014c0-5.009,4.075-9.084,9.084-9.084c5.009,0,9.084,4.075,9.084,9.084
	s-4.075,9.084-9.084,9.084C69.109,359.098,65.034,355.023,65.034,350.014z"/>
<path d="M193.818,162.449h-85.5c-23.277,0-42.215,18.938-42.215,42.215s18.938,42.215,42.215,42.215h85.5
	c23.277,0,42.215-18.938,42.215-42.215S217.095,162.449,193.818,162.449z M193.818,230.849h-85.5
	c-14.438,0-26.184-11.747-26.184-26.184s11.745-26.184,26.184-26.184h85.5c14.438,0,26.184,11.747,26.184,26.184
	S208.255,230.849,193.818,230.849z"/>
</svg>