<!DOCTYPE svg PUBLIC "-//W3C//DTD SVG 1.1//EN" "http://www.w3.org/Graphics/SVG/1.1/DTD/svg11.dtd">
<!-- Uploaded to: SVG Repo, www.svgrepo.com, Transformed by: SVG Repo Mixer Tools -->
<svg fill="#3109fb" height="800px" width="800px" version="1.1" id="Capa_1" xmlns="http://www.w3.org/2000/svg" xmlns:xlink="http://www.w3.org/1999/xlink" viewBox="0 0 483.315 483.315" xml:space="preserve" stroke="#3109fb">
<g id="SVGRepo_bgCarrier" stroke-width="0"/>
<g id="SVGRepo_tracerCarrier" stroke-linecap="round" stroke-linejoin="round"/>
<g id="SVGRepo_iconCarrier"> <g> <path d="M241.657,0C108.401,0,0,108.409,0,241.657s108.401,241.659,241.657,241.659s241.659-108.411,241.659-241.659 S374.912,0,241.657,0z M241.657,63.704c90.004,0,164.423,67.227,176.15,154.064h-73.829c-0.917-4.424-2.798-8.64-5.738-12.223 c-5.397-6.611-13.5-10.452-22.038-10.452H165.558c-8.538,0-16.641,3.841-22.038,10.452c-2.94,3.583-4.821,7.799-5.738,12.223 H65.508C77.234,130.93,151.655,63.704,241.657,63.704z M297.958,273.509c0,31.471-25.599,57.07-57.078,57.07 c-31.463,0-57.063-25.599-57.063-57.07c0-31.47,25.599-57.071,57.063-57.071C272.359,216.438,297.958,242.039,297.958,273.509z M65.508,265.546h79.536l12.894,63.401c2.69,13.258,14.356,22.792,27.901,22.792h31.153v65.959 C138.356,406.718,76.147,344.29,65.508,265.546z M264.769,417.931v-66.193h31.153c13.545,0,25.211-9.533,27.901-22.792 l12.894-63.401h81.092C407.107,344.811,344.134,407.573,264.769,417.931z"/> <path d="M215.669,273.509c0,13.905,11.307,25.219,25.211,25.219c13.903,0,25.227-11.314,25.227-25.219 c0-13.903-11.323-25.219-25.227-25.219C226.976,248.29,215.669,259.605,215.669,273.509z"/> </g> </g>
</svg>