<?xml version="1.0" standalone="no"?>
<!DOCTYPE svg PUBLIC "-//W3C//DTD SVG 20010904//EN"
 "http://www.w3.org/TR/2001/REC-SVG-20010904/DTD/svg10.dtd">
<svg version="1.0" xmlns="http://www.w3.org/2000/svg"
 width="512.000000pt" height="512.000000pt" viewBox="0 0 512.000000 512.000000"
 preserveAspectRatio="xMidYMid meet">

<g transform="translate(0.000000,512.000000) scale(0.100000,-0.100000)"
fill="#000000" stroke="none">
<path d="M2380 5114 c-19 -2 -78 -9 -130 -14 -330 -36 -695 -160 -990 -336
-375 -224 -680 -529 -904 -904 -175 -292 -291 -632 -338 -990 -16 -123 -16
-497 0 -620 82 -623 356 -1150 820 -1581 256 -239 575 -425 922 -539 274 -91
491 -124 800 -124 228 0 329 9 530 50 689 141 1304 583 1674 1204 175 292 291
632 338 990 16 123 16 497 0 620 -47 358 -163 698 -338 990 -224 375 -529 680
-904 904 -289 173 -634 291 -980 336 -88 12 -438 21 -500 14z m520 -169 c588
-89 1134 -393 1503 -837 249 -301 435 -680 510 -1043 41 -195 51 -299 51 -505
0 -386 -75 -713 -243 -1055 -242 -491 -610 -861 -1101 -1104 -233 -115 -462
-187 -730 -228 -159 -24 -501 -24 -660 0 -540 83 -995 310 -1371 686 -376 376
-603 831 -686 1371 -24 159 -24 501 0 660 83 540 310 995 686 1371 411 411
925 648 1521 703 91 8 418 -4 520 -19z"/>
<path d="M3063 3982 c-154 -55 -253 -193 -253 -353 0 -72 25 -154 53 -174 32
-22 70 -19 97 10 20 21 22 30 15 67 -14 70 -10 160 7 193 39 75 120 124 201
125 86 0 152 -41 203 -127 38 -66 113 -71 142 -10 29 61 -70 197 -185 253 -75
37 -201 44 -280 16z"/>
<path d="M4060 3689 c-182 -36 -327 -203 -338 -390 -8 -130 32 -234 124 -326
146 -147 383 -165 545 -43 65 49 103 95 134 163 69 149 51 315 -47 438 -39 50
-41 51 -81 45 -65 -10 -68 -9 -133 15 -51 19 -63 29 -73 55 -10 28 -55 58 -80
53 -3 -1 -26 -5 -51 -10z m192 -296 c63 -120 103 -287 77 -319 -24 -29 -112
-66 -168 -71 -80 -7 -155 23 -214 86 -142 151 -69 390 134 445 l54 15 41 -44
c22 -24 57 -74 76 -112z"/>
<path d="M1277 3239 c-195 -46 -324 -257 -277 -453 14 -61 28 -82 61 -95 32
-12 85 10 94 39 4 12 1 51 -6 86 -26 133 38 240 164 275 87 24 198 -26 247
-111 33 -57 69 -76 107 -58 15 7 34 25 41 41 11 23 10 33 -7 71 -24 56 -92
130 -149 163 -78 46 -188 63 -275 42z"/>
<path d="M3408 3040 c-9 -6 -29 -43 -44 -83 -75 -201 -180 -355 -332 -490
-222 -198 -455 -292 -753 -304 -213 -8 -377 23 -572 111 -71 32 -97 33 -125 3
-29 -31 -29 -77 1 -105 40 -38 236 -112 367 -138 662 -135 1334 242 1556 873
l29 82 -21 28 c-23 30 -75 42 -106 23z"/>
<path d="M831 2354 c-211 -57 -349 -267 -312 -475 45 -257 298 -415 543 -339
274 84 385 409 222 647 -42 61 -76 77 -123 57 -30 -13 -37 -12 -65 5 -17 11
-48 22 -68 26 -31 6 -38 12 -38 30 0 29 -44 65 -79 64 -14 0 -50 -7 -80 -15z
m144 -176 c77 -90 161 -306 153 -396 -2 -29 -11 -41 -43 -63 -86 -58 -209 -58
-298 2 -165 109 -155 352 19 459 27 17 66 29 126 39 3 1 23 -18 43 -41z"/>
<path d="M2800 1970 c-36 -16 -75 -38 -87 -49 -48 -41 -16 -121 47 -121 44 0
178 59 201 88 24 32 24 53 -2 86 -27 34 -73 33 -159 -4z"/>
</g>
</svg>
