<?xml version="1.0" encoding="iso-8859-1"?>
<!-- Uploaded to: SVG Repo, www.svgrepo.com, Generator: SVG Repo Mixer Tools -->
<svg fill="#000000" height="800px" width="800px" version="1.1" id="Layer_1" xmlns="http://www.w3.org/2000/svg" xmlns:xlink="http://www.w3.org/1999/xlink" 
	 viewBox="0 0 512.001 512.001" xml:space="preserve">
<g>
	<g>
		<path d="M246.914,371.441V353.27c0-13.262-10.789-24.05-24.05-24.05h-18.171c-4.428,0-8.017,3.589-8.017,8.017v68.409
			c0,4.427,3.588,8.017,8.017,8.017s8.017-3.589,8.017-8.017v-26.206c0.176,0.012,0.355,0.018,0.534,0.018h3.597l14.886,29.773
			c2.083,4.17,7.445,5.675,11.406,3.219c3.473-2.152,4.759-6.74,2.934-10.39l-11.301-22.603h4.131
			C243.326,379.457,246.914,375.868,246.914,371.441z M230.881,363.424h-17.637c-0.18,0-0.358,0.005-0.534,0.018v-18.189h10.154
			c4.421,0,8.017,3.596,8.017,8.017V363.424z"/>
	</g>
</g>
<g>
	<g>
		<path d="M298.756,397.629h-26.188v-18.171h9.086c4.428,0,8.017-3.589,8.017-8.017c0-4.427-3.588-8.017-8.017-8.017h-9.086v-18.171
			h26.188c4.428,0,8.017-3.589,8.017-8.017s-3.588-8.017-8.017-8.017h-34.205c-4.428,0-8.017,3.589-8.017,8.017v68.409
			c0,4.427,3.588,8.017,8.017,8.017h34.205c4.428,0,8.017-3.589,8.017-8.017C306.772,401.218,303.184,397.629,298.756,397.629z"/>
	</g>
</g>
<g>
	<g>
		<path d="M367.164,329.22c-4.428,0-8.016,3.589-8.016,8.017v40.457l-27.941-44.705c-1.895-3.034-5.574-4.44-9.009-3.457
			c-3.439,0.985-5.807,4.13-5.807,7.706v68.409c0,4.427,3.588,8.017,8.017,8.017s8.017-3.589,8.017-8.017v-40.457l27.941,44.705
			c1.964,3.143,5.946,4.536,9.444,3.318c3.181-1.109,5.371-4.196,5.371-7.567v-68.409
			C375.181,332.809,371.592,329.22,367.164,329.22z"/>
	</g>
</g>
<g>
	<g>
		<path d="M427.023,329.22h-34.205c-4.428,0-8.017,3.589-8.017,8.017s3.588,8.017,8.017,8.017h9.086v60.392
			c0,4.427,3.588,8.017,8.017,8.017c4.428,0,8.017-3.589,8.017-8.017v-60.392h9.086c4.428,0,8.017-3.589,8.017-8.017
			S431.451,329.22,427.023,329.22z"/>
	</g>
</g>
<g>
	<g>
		<path d="M102.079,277.913c-4.428,0-8.017,3.589-8.017,8.017v102.614c0,4.427,3.588,8.017,8.017,8.017s8.017-3.589,8.017-8.017
			V285.929C110.096,281.502,106.508,277.913,102.079,277.913z"/>
	</g>
</g>
<g>
	<g>
		<path d="M67.875,243.708c-4.428,0-8.017,3.589-8.017,8.017v171.023c0,4.427,3.588,8.017,8.017,8.017
			c4.428,0,8.017-3.589,8.017-8.017V251.725C75.891,247.297,72.303,243.708,67.875,243.708z"/>
	</g>
</g>
<g>
	<g>
		<path d="M452.676,234.088c2.126,0,4.164-0.844,5.669-2.348l51.307-51.307c3.131-3.131,3.131-8.207,0-11.337l-51.307-51.307
			c-1.504-1.504-3.542-2.348-5.669-2.348H247.449c-4.428,0-8.017,3.589-8.017,8.017s3.588,8.017,8.017,8.017h201.908l43.29,43.29
			l-43.29,43.29H16.033v-86.58h188.66c4.428,0,8.017-3.589,8.017-8.017s-3.588-8.017-8.017-8.017h-60.392V63.599
			c0-2.126-0.844-4.165-2.347-5.668L90.646,6.624c-3.132-3.131-8.207-3.131-11.338,0L28.002,57.931
			c-1.504,1.503-2.348,3.542-2.348,5.668v51.841H8.017c-4.428,0-8.017,3.589-8.017,8.017v102.614c0,4.427,3.588,8.017,8.017,8.017
			h17.637v188.66c0,4.427,3.588,8.017,8.017,8.017c4.428,0,8.017-3.589,8.017-8.017v-188.66h86.58v257.603h-18.171v-43.29
			c0-4.427-3.588-8.017-8.017-8.017s-8.017,3.589-8.017,8.017v43.29H41.687v-26.188c0-4.427-3.588-8.017-8.017-8.017
			c-4.428,0-8.017,3.589-8.017,8.017v34.205c0,4.427,3.588,8.017,8.017,8.017h102.614c4.428,0,8.017-3.589,8.017-8.017v-265.62
			h52.376v35.273h-26.188c-4.428,0-8.017,3.589-8.017,8.017v188.125c0,4.427,3.588,8.017,8.017,8.017h205.228
			c4.428,0,8.017-3.589,8.017-8.017c0-4.427-3.588-8.017-8.017-8.017H178.505V285.395h274.706v172.092h-34.739
			c-4.428,0-8.017,3.589-8.017,8.017c0,4.427,3.588,8.017,8.017,8.017h42.756c4.428,0,8.017-3.589,8.017-8.017V277.378
			c0-4.427-3.588-8.017-8.017-8.017h-34.739v-35.273H452.676z M41.687,66.919l18.171-18.171v31.953c0,4.427,3.588,8.017,8.017,8.017
			c4.428,0,8.017-3.589,8.017-8.017V32.715l9.086-9.086l43.29,43.29v48.521h-18.171v-43.29c0-4.427-3.588-8.017-8.017-8.017
			s-8.017,3.589-8.017,8.017v43.29H41.687V66.919z M222.33,269.361h-9.62v-35.273h9.62V269.361z M384.802,269.361H238.363v-35.273
			h146.438V269.361z M410.455,269.361h-9.62v-35.26h9.62V269.361z"/>
	</g>
</g>
<g>
	<g>
		<path d="M84.977,149.645c-13.851,0-25.119,11.268-25.119,25.119s11.268,25.119,25.119,25.119s25.119-11.268,25.119-25.119
			S98.828,149.645,84.977,149.645z M84.977,183.85c-5.01,0-9.086-4.076-9.086-9.086s4.076-9.086,9.086-9.086
			s9.086,4.076,9.086,9.086S89.987,183.85,84.977,183.85z"/>
	</g>
</g>
<g>
	<g>
		<path d="M452.676,183.85h-94.063c-4.428,0-8.017,3.589-8.017,8.017s3.588,8.017,8.017,8.017h94.063
			c4.428,0,8.017-3.589,8.017-8.017S457.105,183.85,452.676,183.85z"/>
	</g>
</g>
<g>
	<g>
		<path d="M384.267,149.645H196.142c-4.428,0-8.017,3.589-8.017,8.017s3.588,8.017,8.017,8.017h188.125
			c4.428,0,8.017-3.589,8.017-8.017S388.696,149.645,384.267,149.645z"/>
	</g>
</g>
<g>
	<g>
		<path d="M281.653,183.85h-145.37c-4.428,0-8.017,3.589-8.017,8.017s3.588,8.017,8.017,8.017h145.37
			c4.428,0,8.017-3.589,8.017-8.017S286.082,183.85,281.653,183.85z"/>
	</g>
</g>
</svg>