<?xml version="1.0" encoding="UTF-8"?>
<svg version="1.1" xmlns="http://www.w3.org/2000/svg" width="24" height="24">
<path d="M0 0 C8.41353659 0 13.79920853 1.67952512 21 6 C21 7.32 21 8.64 21 10 C20.34 10 19.68 10 19 10 C19.33 10.825 19.66 11.65 20 12.5 C21.16727425 16.58545988 21.06997991 19.76621529 21 24 C18.37472811 24.05382106 15.75055287 24.09358313 13.125 24.125 C12.37863281 24.14175781 11.63226563 24.15851562 10.86328125 24.17578125 C8.90805539 24.1933959 6.95257979 24.10320189 5 24 C4.34 23.34 3.68 22.68 3 22 C1.01178687 21.60235737 -0.98944339 21.26224651 -3 21 C-3 20.01 -3 19.02 -3 18 C-2.34 18 -1.68 18 -1 18 C-1 15.36 -1 12.72 -1 10 C-1.66 10 -2.32 10 -3 10 C-3 8.68 -3 7.36 -3 6 C-2.34 5.67 -1.68 5.34 -1 5 C-0.34444881 2.47266765 -0.34444881 2.47266765 0 0 Z " fill="#34231B" transform="translate(3,0)"/>
<path d="M0 0 C2.01526169 0.96887581 4.01833966 1.9641321 6 3 C6 5.64 6 8.28 6 11 C4.60974609 11.07347656 4.60974609 11.07347656 3.19140625 11.1484375 C1.99386719 11.22320312 0.79632813 11.29796875 -0.4375 11.375 C-2.22994141 11.47941406 -2.22994141 11.47941406 -4.05859375 11.5859375 C-5.02925781 11.72257812 -5.99992188 11.85921875 -7 12 C-7.33 12.66 -7.66 13.32 -8 14 C-8.66 14 -9.32 14 -10 14 C-10 11.03 -10 8.06 -10 5 C-8.35 4.67 -6.7 4.34 -5 4 C-6.98 4 -8.96 4 -11 4 C-7.67696613 0.34466274 -4.89981041 -1.87345692 0 0 Z " fill="#A6ABB0" transform="translate(15,5)"/>
<path d="M0 0 C1.27617187 0.02320312 2.55234375 0.04640625 3.8671875 0.0703125 C5.78917969 0.09738281 5.78917969 0.09738281 7.75 0.125 C9.23113281 0.15980469 9.23113281 0.15980469 10.7421875 0.1953125 C10.7421875 2.1753125 10.7421875 4.1553125 10.7421875 6.1953125 C6.1221875 6.1953125 1.5021875 6.1953125 -3.2578125 6.1953125 C-3.9178125 4.8753125 -4.5778125 3.5553125 -5.2578125 2.1953125 C-3.2578125 0.1953125 -3.2578125 0.1953125 0 0 Z " fill="#F18E69" transform="translate(12.2578125,16.8046875)"/>
<path d="M0 0 C0.99 0 1.98 0 3 0 C3.33 0.66 3.66 1.32 4 2 C4.804375 1.731875 5.60875 1.46375 6.4375 1.1875 C11.57681519 0.91700973 14.77010475 3.28346727 19 6 C17.15234375 6.59375 17.15234375 6.59375 15 7 C14.195625 6.505 13.39125 6.01 12.5625 5.5 C10.12398997 3.74755585 10.12398997 3.74755585 7.4375 4.1875 C6.633125 4.455625 5.82875 4.72375 5 5 C4.30519531 5.23074219 3.61039062 5.46148438 2.89453125 5.69921875 C0.72022664 6.87914362 0.72022664 6.87914362 0.390625 9.6015625 C0.34421875 10.59929688 0.2978125 11.59703125 0.25 12.625 C0.19328125 13.62789062 0.1365625 14.63078125 0.078125 15.6640625 C0.05234375 16.43492188 0.0265625 17.20578125 0 18 C-0.33 18 -0.66 18 -1 18 C-2.51708428 5.33029613 -2.51708428 5.33029613 0 0 Z " fill="#7E5F54" transform="translate(4,1)"/>
<path d="M0 0 C5.14120602 0 9.14048959 0.09845245 14 2 C14.33 2.66 14.66 3.32 15 4 C13.01432292 3.70703125 11.02864583 3.4140625 9.04296875 3.12109375 C6.7974658 2.86095201 6.7974658 2.86095201 4 4 C4 3.01 4 2.02 4 1 C3.01 1 2.02 1 1 1 C1.020625 1.78375 1.04125 2.5675 1.0625 3.375 C1 6 1 6 0 8 C-0.07033769 9.87379605 -0.0843022 11.75001102 -0.0625 13.625 C-0.05347656 14.62789062 -0.04445312 15.63078125 -0.03515625 16.6640625 C-0.02355469 17.43492188 -0.01195312 18.20578125 0 19 C-0.99 18.67 -1.98 18.34 -3 18 C-2.34 18 -1.68 18 -1 18 C-1 15.36 -1 12.72 -1 10 C-1.66 10 -2.32 10 -3 10 C-3 8.68 -3 7.36 -3 6 C-2.34 5.67 -1.68 5.34 -1 5 C-0.34444881 2.47266765 -0.34444881 2.47266765 0 0 Z " fill="#0F0806" transform="translate(3,0)"/>
<path d="M0 0 C2.75 1.5 2.75 1.5 5 3 C5 3.33 5 3.66 5 4 C-0.52967941 4.71033431 -5.49983036 5.30267176 -11 4 C-7.70198364 0.37218201 -4.87500054 -1.92045476 0 0 Z " fill="#EAEAEA" transform="translate(15,5)"/>
<path d="M0 0 C2.64 0 5.28 0 8 0 C8.33 1.65 8.66 3.3 9 5 C7.02 5 5.04 5 3 5 C3 4.34 3 3.68 3 3 C2.34 3 1.68 3 1 3 C0.67 3.66 0.34 4.32 0 5 C0 3.35 0 1.7 0 0 Z " fill="#2A343E" transform="translate(11,9)"/>
<path d="M0 0 C1.32 0 2.64 0 4 0 C4.25 5.625 4.25 5.625 2 9 C1.34 9 0.68 9 0 9 C0 6.03 0 3.06 0 0 Z " fill="#EECB9E" transform="translate(5,10)"/>
<path d="M0 0 C1.98 0 3.96 0 6 0 C6 1.65 6 3.3 6 5 C4.35 5 2.7 5 1 5 C0.67 3.35 0.34 1.7 0 0 Z " fill="#9F6551" transform="translate(17,18)"/>
<path d="M0 0 C5.28137429 0.51525603 8.57221156 2.25477117 13 5 C11.3125 5.6875 11.3125 5.6875 9 6 C6.5 4.625 6.5 4.625 4 3 C1.80869466 2.30420546 1.80869466 2.30420546 0 2 C0 1.34 0 0.68 0 0 Z " fill="#844E3D" transform="translate(10,2)"/>
<path d="M0 0 C1.98 0 3.96 0 6 0 C6 1.32 6 2.64 6 4 C4.02 4 2.04 4 0 4 C0 2.68 0 1.36 0 0 Z " fill="#5A4A45" transform="translate(10,18)"/>
<path d="M0 0 C1.65 0 3.3 0 5 0 C5 1.32 5 2.64 5 4 C3.35 3.67 1.7 3.34 0 3 C0 2.01 0 1.02 0 0 Z " fill="#4D5C6F" transform="translate(15,10)"/>
</svg>
