<?xml version="1.0" encoding="UTF-8"?>
<svg version="1.1" xmlns="http://www.w3.org/2000/svg" width="24" height="24">
<path d="M0 0 C8.41353659 0 13.79920853 1.67952512 21 6 C21 7.32 21 8.64 21 10 C20.34 10 19.68 10 19 10 C19.33 10.825 19.66 11.65 20 12.5 C21.16727425 16.58545988 21.06997991 19.76621529 21 24 C18.37472811 24.05382106 15.75055287 24.09358313 13.125 24.125 C12.37863281 24.14175781 11.63226563 24.15851562 10.86328125 24.17578125 C8.90805539 24.1933959 6.95257979 24.10320189 5 24 C4.34 23.34 3.68 22.68 3 22 C1.01178687 21.60235737 -0.98944339 21.26224651 -3 21 C-3 20.01 -3 19.02 -3 18 C-2.34 18 -1.68 18 -1 18 C-1 15.36 -1 12.72 -1 10 C-1.66 10 -2.32 10 -3 10 C-3 8.68 -3 7.36 -3 6 C-2.34 5.67 -1.68 5.34 -1 5 C-0.34444881 2.47266765 -0.34444881 2.47266765 0 0 Z M4.1875 5.875 C2.6096875 6.926875 2.6096875 6.926875 1 8 C1 8.33 1 8.66 1 9 C6.28 9 11.56 9 17 9 C10.95830027 4.06801435 10.95830027 4.06801435 4.1875 5.875 Z M2 10 C2 12.64 2 15.28 2 18 C2.66 18 3.32 18 4 18 C6.1519437 14.77208445 6.20086443 13.71599191 6 10 C4.68 10 3.36 10 2 10 Z M6 17 C4.60229416 20.74691447 4.60229416 20.74691447 6 23 C10.29 23 14.58 23 19 23 C18.34 21.68 17.68 20.36 17 19 C17 19.99 17 20.98 17 22 C14.03 21.67 11.06 21.34 8 21 C7.67 20.01 7.34 19.02 7 18 C11.29 18 15.58 18 20 18 C20 17.67 20 17.34 20 17 C15.38 17 10.76 17 6 17 Z M19 19 C20 22 20 22 20 22 Z " fill="#000000" transform="translate(3,0)"/>
</svg>
